<svg width="12" height="7" viewBox="0 0 12 7" fill="none" xmlns="http://www.w3.org/2000/svg">
<path d="M6.7201 6.78C6.57958 6.92069 6.38894 6.99982 6.1901 7L5.8101 7C5.61168 6.9977 5.42182 6.91888 5.2801 6.78L0.150096 1.64C0.103232 1.59352 0.0660349 1.53822 0.0406506 1.47729C0.0152663 1.41636 0.00219702 1.35101 0.00219702 1.285C0.00219701 1.21899 0.0152663 1.15364 0.0406506 1.09271C0.0660349 1.03178 0.103232 0.976482 0.150096 0.93L0.860096 0.22C0.905719 0.173437 0.960175 0.136444 1.02027 0.11119C1.08037 0.085936 1.14491 0.0729284 1.2101 0.0729284C1.27529 0.0729284 1.33982 0.085936 1.39992 0.11119C1.46002 0.136444 1.51447 0.173437 1.5601 0.22L6.0001 4.67L10.4401 0.22C10.4866 0.173136 10.5419 0.135939 10.6028 0.110554C10.6637 0.0851698 10.7291 0.0721002 10.7951 0.0721002C10.8611 0.0721002 10.9265 0.0851698 10.9874 0.110554C11.0483 0.135939 11.1036 0.173136 11.1501 0.22L11.8501 0.93C11.897 0.976481 11.9342 1.03178 11.9595 1.09271C11.9849 1.15364 11.998 1.21899 11.998 1.285C11.998 1.35101 11.9849 1.41636 11.9595 1.47729C11.9342 1.53822 11.897 1.59352 11.8501 1.64L6.7201 6.78Z" fill="#C0CCDA"/>
</svg>
